<svg width="36" height="43" viewBox="0 0 36 43" fill="none" xmlns="http://www.w3.org/2000/svg">
<path d="M20.0139 16.7887C20.3301 15.9018 21.6699 15.9018 21.9861 16.7887L23.8405 21.9944C24.2487 23.1387 24.9364 24.1785 25.8491 25.0312C26.7618 25.8839 27.8745 26.5262 29.0989 26.9071L34.6649 28.6406C35.6136 28.9362 35.6136 30.1886 34.6649 30.4842L29.096 32.2176C27.8718 32.5992 26.7595 33.242 25.8473 34.0952C24.9351 34.9484 24.248 35.9885 23.8405 37.1331L21.9861 42.3361C21.9179 42.5303 21.7859 42.6994 21.6088 42.8193C21.4317 42.9392 21.2187 43.0037 21 43.0037C20.7814 43.0037 20.5683 42.9392 20.3912 42.8193C20.2141 42.6994 20.0821 42.5303 20.0139 42.3361L18.1595 37.1304C17.7516 35.9863 17.0644 34.9468 16.1522 34.0941C15.24 33.2413 14.1279 32.5989 12.904 32.2176L7.33513 30.4842C7.12738 30.4205 6.94647 30.297 6.81821 30.1315C6.68995 29.9659 6.62089 29.7668 6.62089 29.5624C6.62089 29.358 6.68995 29.1588 6.81821 28.9933C6.94647 28.8277 7.12738 28.7043 7.33513 28.6406L12.904 26.9071C14.1279 26.5259 15.24 25.8834 16.1522 25.0307C17.0644 24.178 17.7516 23.1384 18.1595 21.9944L20.0139 16.7887ZM8.90775 3.08513C8.94898 2.96875 9.0284 2.86747 9.13472 2.79569C9.24104 2.7239 9.36885 2.68527 9.5 2.68527C9.63116 2.68527 9.75897 2.7239 9.86529 2.79569C9.97161 2.86747 10.051 2.96875 10.0923 3.08513L11.2049 6.20801C11.7023 7.60013 12.8695 8.69126 14.3588 9.15619L17.6995 10.1963C17.824 10.2348 17.9324 10.309 18.0091 10.4084C18.0859 10.5078 18.1273 10.6273 18.1273 10.7499C18.1273 10.8725 18.0859 10.992 18.0091 11.0913C17.9324 11.1907 17.824 11.265 17.6995 11.3035L14.3588 12.3436C13.6243 12.5723 12.9569 12.9578 12.4094 13.4696C11.862 13.9813 11.4496 14.6052 11.2049 15.2918L10.0923 18.4146C10.051 18.531 9.97161 18.6323 9.86529 18.7041C9.75897 18.7759 9.63116 18.8145 9.5 18.8145C9.36885 18.8145 9.24104 18.7759 9.13472 18.7041C9.0284 18.6323 8.94898 18.531 8.90775 18.4146L7.79513 15.2918C7.55042 14.6052 7.13801 13.9813 6.59058 13.4696C6.04315 12.9578 5.37574 12.5723 4.64125 12.3436L1.3005 11.3035C1.176 11.265 1.06766 11.1907 0.990865 11.0913C0.914074 10.992 0.872742 10.8725 0.872742 10.7499C0.872742 10.6273 0.914074 10.5078 0.990865 10.4084C1.06766 10.309 1.176 10.2348 1.3005 10.1963L4.64125 9.15619C5.37574 8.92744 6.04315 8.54193 6.59058 8.0302C7.13801 7.51847 7.55042 6.8946 7.79513 6.20801L8.90775 3.08513ZM29.2311 0.265945C29.2595 0.189422 29.3127 0.123066 29.3833 0.0761039C29.4539 0.0291416 29.5384 0.00390625 29.625 0.00390625C29.7116 0.00390625 29.7961 0.0291416 29.8667 0.0761039C29.9373 0.123066 29.9905 0.189422 30.0189 0.265945L30.7606 2.34607C31.0913 3.27594 31.8704 4.00426 32.8651 4.31332L35.0904 5.00669C35.1722 5.03322 35.2432 5.08294 35.2935 5.14892C35.3437 5.21491 35.3707 5.29389 35.3707 5.37488C35.3707 5.45587 35.3437 5.53485 35.2935 5.60084C35.2432 5.66682 35.1722 5.71654 35.0904 5.74307L32.8651 6.43644C32.3749 6.58889 31.9295 6.84606 31.5641 7.18755C31.1988 7.52904 30.9237 7.94544 30.7606 8.40369L30.0189 10.4838C29.9905 10.5603 29.9373 10.6267 29.8667 10.6737C29.7961 10.7206 29.7116 10.7459 29.625 10.7459C29.5384 10.7459 29.4539 10.7206 29.3833 10.6737C29.3127 10.6267 29.2595 10.5603 29.2311 10.4838L28.4894 8.40369C28.3263 7.94544 28.0512 7.52904 27.6859 7.18755C27.3206 6.84606 26.8751 6.58889 26.3849 6.43644L24.1625 5.74307C24.0806 5.71654 24.0097 5.66682 23.9594 5.60084C23.9092 5.53485 23.8822 5.45587 23.8822 5.37488C23.8822 5.29389 23.9092 5.21491 23.9594 5.14892C24.0097 5.08294 24.0806 5.03322 24.1625 5.00669L26.3878 4.31332C27.3825 4.00426 28.1616 3.27594 28.4923 2.34607L29.2311 0.268632V0.265945Z" fill="#795AFF"/>
</svg>
