<svg width="46" height="36" viewBox="0 0 46 36" fill="none" xmlns="http://www.w3.org/2000/svg">
<path d="M5 36C3.7625 36 2.7035 35.5597 1.823 34.6792C0.941 33.7972 0.5 32.7375 0.5 31.5V4.5C0.5 3.2625 0.941 2.2035 1.823 1.323C2.7035 0.441 3.7625 0 5 0H41C42.2375 0 43.2972 0.441 44.1792 1.323C45.0597 2.2035 45.5 3.2625 45.5 4.5V31.5C45.5 32.7375 45.0597 33.7972 44.1792 34.6792C43.2972 35.5597 42.2375 36 41 36H5ZM5 31.5H28.625V23.625H5V31.5ZM33.125 31.5H41V11.25H33.125V31.5ZM5 19.125H28.625V11.25H5V19.125Z" fill="#795AFF"/>
</svg>
