<svg width="46" height="46" viewBox="0 0 46 46" fill="none" xmlns="http://www.w3.org/2000/svg">
<path d="M23 45.5C19.925 45.5 17.0187 44.909 14.2812 43.727C11.5437 42.5465 9.1535 40.934 7.1105 38.8895C5.066 36.8465 3.4535 34.4562 2.273 31.7188C1.091 28.9813 0.5 26.075 0.5 23C0.5 19.8875 1.109 16.9625 2.327 14.225C3.5465 11.4875 5.19725 9.10625 7.27925 7.08125C9.35975 5.05625 11.7875 3.45275 14.5625 2.27075C17.3375 1.09025 20.3 0.5 23.45 0.5C26.45 0.5 29.2813 1.016 31.9438 2.048C34.6063 3.0785 36.9403 4.5035 38.9458 6.323C40.9528 8.141 42.5465 10.2972 43.727 12.7917C44.909 15.2847 45.5 17.975 45.5 20.8625C45.5 25.175 44.1875 28.484 41.5625 30.7895C38.9375 33.0965 35.75 34.25 32 34.25H27.8375C27.5 34.25 27.266 34.3438 27.1355 34.5312C27.0035 34.7188 26.9375 34.925 26.9375 35.15C26.9375 35.6 27.2188 36.2465 27.7812 37.0895C28.3438 37.934 28.625 38.9 28.625 39.9875C28.625 41.8625 28.109 43.25 27.077 44.15C26.0465 45.05 24.6875 45.5 23 45.5ZM10.625 25.25C11.6 25.25 12.4062 24.9312 13.0437 24.2937C13.6812 23.6562 14 22.85 14 21.875C14 20.9 13.6812 20.0938 13.0437 19.4563C12.4062 18.8188 11.6 18.5 10.625 18.5C9.65 18.5 8.84375 18.8188 8.20625 19.4563C7.56875 20.0938 7.25 20.9 7.25 21.875C7.25 22.85 7.56875 23.6562 8.20625 24.2937C8.84375 24.9312 9.65 25.25 10.625 25.25ZM17.375 16.25C18.35 16.25 19.1562 15.9312 19.7937 15.2937C20.4312 14.6562 20.75 13.85 20.75 12.875C20.75 11.9 20.4312 11.0938 19.7937 10.4563C19.1562 9.81875 18.35 9.5 17.375 9.5C16.4 9.5 15.5938 9.81875 14.9563 10.4563C14.3188 11.0938 14 11.9 14 12.875C14 13.85 14.3188 14.6562 14.9563 15.2937C15.5938 15.9312 16.4 16.25 17.375 16.25ZM28.625 16.25C29.6 16.25 30.4062 15.9312 31.0437 15.2937C31.6812 14.6562 32 13.85 32 12.875C32 11.9 31.6812 11.0938 31.0437 10.4563C30.4062 9.81875 29.6 9.5 28.625 9.5C27.65 9.5 26.8438 9.81875 26.2063 10.4563C25.5688 11.0938 25.25 11.9 25.25 12.875C25.25 13.85 25.5688 14.6562 26.2063 15.2937C26.8438 15.9312 27.65 16.25 28.625 16.25ZM35.375 25.25C36.35 25.25 37.1562 24.9312 37.7938 24.2937C38.4313 23.6562 38.75 22.85 38.75 21.875C38.75 20.9 38.4313 20.0938 37.7938 19.4563C37.1562 18.8188 36.35 18.5 35.375 18.5C34.4 18.5 33.5938 18.8188 32.9562 19.4563C32.3187 20.0938 32 20.9 32 21.875C32 22.85 32.3187 23.6562 32.9562 24.2937C33.5938 24.9312 34.4 25.25 35.375 25.25Z" fill="#795AFF"/>
</svg>
